<svg width="76" height="675" viewBox="0 0 76 675" fill="none" xmlns="http://www.w3.org/2000/svg">
<path opacity="0.5" d="M-35.9925 2.49017C-9.74225 17.4928 13.0019 37.9277 30.7189 62.428C47.8869 86.2056 59.779 119.992 42.867 143.953C27.8519 165.531 -2.0352 168.739 -28.1087 172.082C-64.621 176.823 -102.724 186.97 -127.911 213.844C-153.098 240.718 -158.425 288.583 -130.458 312.77C-106.201 333.683 -70.1193 328.754 -38.2428 324.89C-6.36624 321.026 31.6677 321.626 49.8784 347.815C59.5376 361.763 60.9912 380.114 57.7199 396.769C49.9024 436.748 9.16175 471.385 -30.2734 461.192C-42.5043 458.015 -54.5731 449.64 -57.2014 437.22C-61.5928 416.508 -37.1381 400.08 -15.9313 400.544C10.5412 401.173 35.1277 417.707 49.9031 439.79C64.6785 461.873 70.7229 488.776 72.3232 515.28C75.4854 570.802 60.6143 625.859 29.9281 672.239" stroke="white" stroke-width="4.63276" stroke-linecap="round" stroke-linejoin="round" stroke-dasharray="4.59 12.28"/>
</svg>
