<svg width="116" height="788" viewBox="0 0 116 788" fill="none" xmlns="http://www.w3.org/2000/svg">
<path opacity="0.5" d="M91.3092 2.43134C62.4828 22.5815 38.2912 48.6545 20.3525 78.9067C2.97348 108.264 -7.23737 148.658 14.883 174.632C34.5545 198.044 69.5158 198.607 100.074 199.728C142.872 201.367 188.083 209.1 220.097 237.575C252.111 266.049 263.333 320.935 233.488 351.907C207.593 378.694 165.275 376.792 127.94 375.679C90.6043 374.567 46.607 379.275 28.2746 411.537C18.5568 428.713 18.8095 450.125 24.3567 469.074C37.632 514.563 88.4835 550.39 133.092 534.419C146.925 529.448 160.022 518.472 161.757 503.807C164.658 479.35 134.595 462.899 110.077 465.675C79.4758 469.198 52.7384 490.946 37.9522 518.088C23.1661 545.229 19.003 577.033 19.9461 607.905C22.1423 672.558 45.1799 734.77 85.623 785.26" stroke="white" stroke-width="4.63276" stroke-linecap="round" stroke-linejoin="round" stroke-dasharray="4.59 12.28"/>
</svg>
